<svg xmlns="http://www.w3.org/2000/svg" version="1.0" preserveAspectRatio="xMidYMid meet" viewBox="19.5 31.16 411.19 382.84">
<metadata>
Created by potrace 1.10, written by Peter Selinger 2001-2011
</metadata>
<g transform="translate(0.000000,2160.000000) scale(0.100000,-0.100000)" fill="#000000" stroke="none">
<path d="M2214 21268 c-16 -13 -224 -198 -464 -412 l-435 -388 -3 308 c-2 231 -5 310 -15 316 -17 11 -475 10 -482 -1 -3 -6 -5 -247 -5 -538 0 -290 -4 -533 -8 -539 -4 -6 -142 -131 -307 -279 -165 -147 -300 -275 -300 -284 0 -54 53 -10 1042 874 552 492 1007 895 1013 895 5 0 461 -403 1012 -895 551 -492 1010 -895 1020 -895 21 0 31 16 21 33 -7 12 -1926 1729 -2011 1800 -40 33 -42 33 -78 5z m-944 -530 l-1 -313 -190 -170 c-105 -93 -199 -176 -210 -184 -19 -13 -19 -4 -19 483 l0 496 210 0 210 0 0 -312z"/>
<path d="M1426 20259 l-808 -721 7 -1027 c5 -654 11 -1031 18 -1038 7 -10 341 -13 1607 -13 1266 0 1600 3 1607 13 7 7 13 385 17 1038 l7 1027 -807 721 c-445 396 -815 721 -824 721 -9 0 -379 -325 -824 -721z m1609 -40 l785 -701 0 -937 c0 -516 -3 -966 -6 -1000 l-7 -61 -1557 0 -1558 0 -5 28 c-3 15 -6 464 -7 999 l0 971 782 700 c431 386 784 701 786 701 1 1 356 -314 787 -700z"/>
<path d="M1460 19991 c-68 -21 -141 -83 -174 -148 -39 -78 -28 -189 25 -263 l30 -41 -50 -57 c-84 -98 -149 -200 -128 -202 52 -8 466 -8 476 -1 12 8 13 25 5 101 l-9 92 55 36 c78 53 114 114 118 207 3 58 0 82 -18 124 -27 63 -93 123 -157 145 -49 17 -130 20 -173 7z"/>
<path d="M2863 19984 c-61 -22 -127 -85 -153 -145 -32 -77 -26 -177 15 -245 25 -40 92 -99 133 -116 4 -1 4 -45 -2 -96 -8 -78 -7 -95 5 -103 10 -7 435 -7 477 1 19 3 -45 104 -129 202 l-50 57 30 41 c95 131 47 315 -103 392 -54 28 -165 34 -223 12z"/>
<path d="M1820 19600 c-26 -26 -26 -74 1 -101 16 -16 31 -20 62 -17 29 2 51 -3 70 -16 26 -18 27 -21 27 -112 l0 -94 -584 0 c-504 0 -585 -2 -596 -15 -17 -20 -12 -30 72 -145 l73 -99 533 -1 534 0 26 29 c15 15 53 67 86 114 72 106 69 117 -35 117 l-69 0 0 93 0 93 -40 39 c-30 29 -40 47 -40 70 0 18 -8 39 -18 48 -25 23 -78 21 -102 -3z"/>
<path d="M2577 19602 c-10 -10 -17 -32 -17 -48 0 -22 -11 -41 -40 -69 l-40 -39 0 -93 0 -93 -69 0 c-104 0 -107 -11 -35 -117 33 -47 71 -99 86 -114 l26 -29 534 0 533 1 73 99 c84 115 89 125 72 145 -11 13 -92 15 -596 15 l-584 0 0 87 c0 80 2 89 26 114 22 23 31 26 68 22 35 -4 48 -1 65 16 27 27 27 75 1 101 -26 26 -81 26 -103 2z"/>
<path d="M957 18963 c-4 -3 -7 -309 -7 -679 0 -598 2 -674 16 -688 14 -14 76 -16 533 -16 425 0 521 2 530 14 8 9 10 199 9 692 l-3 679 -536 3 c-294 1 -539 -1 -542 -5z"/>
<path d="M2467 18963 c-4 -3 -7 -311 -7 -683 0 -512 3 -679 12 -688 9 -9 140 -12 529 -12 458 0 519 2 533 16 14 14 16 87 14 692 l-3 677 -536 3 c-294 1 -539 -1 -542 -5z"/>
</g>
</svg>